<svg xmlns="http://www.w3.org/2000/svg" width="212" height="189" viewBox="0 0 212 189">
  <g fill="none" fill-rule="evenodd">
    <polygon fill="#E17726" stroke="#E17726" stroke-linecap="round" stroke-linejoin="round" points="25.68 0 88.173 35.338 76.397 15.677"/>
    <polygon fill="#E27625" stroke="#E27625" stroke-linecap="round" stroke-linejoin="round" points="183.405 0 121.44 35.791 132.935 15.677"/>
    <polygon fill="#E27625" stroke="#E27625" stroke-linecap="round" stroke-linejoin="round" points="38.194 138.539 0 138.539 15.309 169.515 35.789 157.154"/>
    <polygon fill="#E27625" stroke="#E27625" stroke-linecap="round" stroke-linejoin="round" points="171.891 138.539 174.296 157.154 194.776 169.515 210.085 138.539"/>
    <polygon fill="#E27625" stroke="#E27625" stroke-linecap="round" stroke-linejoin="round" points="43.485 35.338 32.676 66.314 15.309 138.539 38.194 138.539"/>
    <polygon fill="#E27625" stroke="#E27625" stroke-linecap="round" stroke-linejoin="round" points="166.6 35.338 171.891 66.314 194.776 138.539 171.891 138.539"/>
    <polygon fill="#F5841F" stroke="#F5841F" stroke-linecap="round" stroke-linejoin="round" points="171.891 138.539 174.296 157.154 166.6 169.515"/>
    <polygon fill="#F5841F" stroke="#F5841F" stroke-linecap="round" stroke-linejoin="round" points="38.194 138.539 43.485 169.515 35.789 157.154"/>
    <polygon fill="#E27625" stroke="#E27625" stroke-linecap="round" stroke-linejoin="round" points="88.173 35.338 89.376 66.314 94.667 97.29 99.958 66.314 101.161 35.338"/>
    <polygon fill="#E27625" stroke="#E27625" stroke-linecap="round" stroke-linejoin="round" points="121.44 35.338 110.631 66.314 105.34 97.29 110.631 66.314 111.834 35.338"/>
    <polygon fill="#F5841F" stroke="#F5841F" stroke-linecap="round" stroke-linejoin="round" points="94.667 97.29 99.958 66.314 105.34 97.29"/>
  </g>
</svg>